<svg width="15" height="16" viewBox="0 0 15 16" fill="none" xmlns="http://www.w3.org/2000/svg">
<path d="M11.1021 11.2653C10.2857 11.9184 9.14286 12.4081 8 12.4081C5.38776 12.4081 3.59184 10.449 3.59184 7.83674C3.59184 5.22448 5.38776 3.42857 8 3.42857C9.14286 3.42857 10.2857 3.7551 11.1021 4.57143L11.5919 5.06122L14.2041 2.61224L13.551 2.12245C12.0816 0.816324 10.1224 0 8 0C3.42857 0 0 3.42857 0 8C0 12.5714 3.42857 16 8 16C10.1224 16 12.0816 15.1836 13.551 13.8776L14.2041 13.3878L11.5919 10.7755L11.1021 11.2653Z" fill="white"/>
<path d="M7.83686 10.6122C9.27952 10.6122 10.4491 9.44263 10.4491 7.99995C10.4491 6.55724 9.27952 5.3877 7.83686 5.3877C6.39415 5.3877 5.22461 6.55724 5.22461 7.99995C5.22461 9.44263 6.39415 10.6122 7.83686 10.6122Z" fill="white"/>
</svg>
