<svg width="8" height="13" viewBox="0 0 8 13" fill="none" xmlns="http://www.w3.org/2000/svg">
<path d="M5.26173 0.4375C4.45519 0.4375 3.68168 0.7579 3.11136 1.32822C2.54105 1.89853 2.22065 2.67205 2.22065 3.4786V5.17175H0.593257C0.511549 5.17175 0.445312 5.23798 0.445312 5.31969V7.55531C0.445312 7.63702 0.51155 7.70325 0.593257 7.70325H2.22065V12.2896C2.22065 12.3713 2.28689 12.4375 2.36859 12.4375H4.6042C4.68591 12.4375 4.75215 12.3713 4.75215 12.2896V7.70325H6.39395C6.46184 7.70325 6.52102 7.65705 6.53748 7.59119L7.09638 5.35557C7.11973 5.2622 7.0491 5.17175 6.95286 5.17175H4.75215V3.4786C4.75215 3.34344 4.80584 3.21383 4.9014 3.11826C4.99697 3.0227 5.12658 2.96901 5.26173 2.96901H6.97132C7.05303 2.96901 7.11926 2.90277 7.11926 2.82106V0.585445C7.11926 0.503737 7.05303 0.4375 6.97132 0.4375H5.26173Z" fill="#CCCCCC"/>
</svg>
