<svg width="17" height="16" viewBox="0 0 17 16" fill="none" xmlns="http://www.w3.org/2000/svg">
<path fill-rule="evenodd" clip-rule="evenodd" d="M8.20314 0C3.78445 0 0.203125 3.672 0.203125 8.20258C0.203125 11.826 2.49469 14.901 5.67415 15.9865C6.07439 16.0606 6.21877 15.808 6.21877 15.591C6.21877 15.3961 6.21236 14.8796 6.20995 14.1961C3.98416 14.6912 3.51413 13.0958 3.51413 13.0958C3.1516 12.1484 2.62623 11.896 2.62623 11.896C1.90034 11.3869 2.68157 11.3984 2.68157 11.3984C3.48526 11.456 3.90636 12.2439 3.90636 12.2439C4.62022 13.4972 5.78003 13.1353 6.23401 12.9256C6.307 12.3952 6.51554 12.0333 6.74334 11.8285C4.96752 11.6221 3.10026 10.9181 3.10026 7.7741C3.10026 6.88016 3.41227 6.14659 3.9216 5.5742C3.84058 5.36613 3.56387 4.5314 4.00101 3.40307C4.00101 3.40307 4.67235 3.18185 6.20033 4.24274C6.84039 4.06099 7.52297 3.96971 8.20233 3.96642C8.88329 3.96971 9.56672 4.06099 10.2044 4.24274C11.7331 3.18103 12.4037 3.40307 12.4037 3.40307C12.8408 4.5314 12.5665 5.36613 12.483 5.5742C12.9964 6.14659 13.3044 6.87934 13.3044 7.7741C13.3044 10.9264 11.4355 11.6188 9.65331 11.8219C9.93802 12.0753 10.1948 12.5753 10.1948 13.3401C10.1948 14.4372 10.1851 15.3221 10.1851 15.591C10.1851 15.8105 10.3279 16.0655 10.7361 15.9849C13.914 14.8977 16.2031 11.8252 16.2031 8.20258C16.2031 3.672 12.6218 0 8.20314 0Z" fill="white"/>
</svg>
