<svg width="17" height="16" viewBox="0 0 17 16" fill="none" xmlns="http://www.w3.org/2000/svg">
<path d="M16.2031 16H12.6475V9.99994C12.6475 9.05898 11.5916 8.27179 10.6507 8.27179C9.70975 8.27179 9.09206 9.05898 9.09206 9.99994V16H5.53648V5.33331H9.09206V7.11108C9.68077 6.1587 11.1866 5.54422 12.2253 5.54422C14.4223 5.54422 16.2031 7.35872 16.2031 9.5555V16ZM3.75869 16H0.203125V5.33331H3.75869V16ZM1.98092 0C2.96275 0 3.7587 0.795934 3.7587 1.77777C3.7587 2.75961 2.96275 3.55554 1.98092 3.55554C0.999072 3.55554 0.203134 2.75961 0.203134 1.77777C0.203134 0.795934 0.999072 0 1.98092 0Z" fill="white"/>
</svg>
