<svg width="12" height="13" viewBox="0 0 12 13" fill="none" xmlns="http://www.w3.org/2000/svg">
<path d="M1.32468 0.4375C0.593079 0.4375 0 1.03058 0 1.76218C0 2.49377 0.593079 3.08685 1.32468 3.08685C2.05628 3.08685 2.64936 2.49377 2.64936 1.76218C2.64936 1.03058 2.05628 0.4375 1.32468 0.4375Z" fill="#CCCCCC"/>
<path d="M0.0779224 4.17776C0.034887 4.17776 0 4.21265 0 4.25568V12.3596C0 12.4026 0.034887 12.4375 0.0779224 12.4375H2.57144C2.61447 12.4375 2.64936 12.4026 2.64936 12.3596V4.25568C2.64936 4.21265 2.61447 4.17776 2.57144 4.17776H0.0779224Z" fill="#CCCCCC"/>
<path d="M4.12989 4.17776C4.08685 4.17776 4.05196 4.21265 4.05196 4.25568V12.3596C4.05196 12.4026 4.08685 12.4375 4.12989 12.4375H6.6234C6.66644 12.4375 6.70132 12.4026 6.70132 12.3596V7.99594C6.70132 7.68595 6.82447 7.38865 7.04367 7.16945C7.26287 6.95025 7.56016 6.82711 7.87016 6.82711C8.18015 6.82711 8.47745 6.95025 8.69665 7.16945C8.91585 7.38865 9.03899 7.68595 9.03899 7.99594V12.3596C9.03899 12.4026 9.07388 12.4375 9.11692 12.4375H11.6104C11.6535 12.4375 11.6884 12.4026 11.6884 12.3596V6.98623C11.6884 5.47345 10.3726 4.28996 8.86747 4.4268C8.40327 4.469 7.94431 4.58439 7.51575 4.76806L6.70132 5.1171V4.25568C6.70132 4.21265 6.66644 4.17776 6.6234 4.17776H4.12989Z" fill="#CCCCCC"/>
</svg>
