<svg width="14" height="13" viewBox="0 0 14 13" fill="none" xmlns="http://www.w3.org/2000/svg">
<path fill-rule="evenodd" clip-rule="evenodd" d="M11.4486 0.4375C10.9334 0.4375 10.4841 0.719654 10.2468 1.13786L8.12434 0.702485C7.91823 0.660205 7.71087 0.769029 7.62857 0.962671C7.38639 1.5325 7.02298 2.39613 6.71983 3.13509C6.58631 3.46059 6.46377 3.7636 6.36824 4.0073C5.23776 4.06214 4.1917 4.35541 3.32829 4.82383C2.99947 4.37701 2.46988 4.08668 1.87183 4.08668C0.873642 4.08668 0.0644531 4.89587 0.0644531 5.89405C0.0644531 6.60778 0.477863 7.2242 1.078 7.51807C1.02677 7.74481 0.999914 7.97848 0.999914 8.21772C0.999914 9.42066 1.67883 10.4826 2.72211 11.2325C3.76585 11.9827 5.19284 12.4375 6.75559 12.4375C8.31833 12.4375 9.74533 11.9827 10.7891 11.2325C11.8323 10.4826 12.5113 9.42066 12.5113 8.21772C12.5113 7.97849 12.4844 7.74483 12.4332 7.5181C13.0332 7.2243 13.4468 6.60792 13.4468 5.89405C13.4468 4.89587 12.6376 4.08668 11.6394 4.08668C11.0413 4.08668 10.5117 4.37702 10.1829 4.82385C9.36366 4.37937 8.37995 4.09259 7.3157 4.01757C7.38313 3.84968 7.4583 3.6649 7.53796 3.47072C7.78494 2.86868 8.07265 2.18221 8.30129 1.64149L10.0805 2.00646C10.1723 2.67998 10.7498 3.19898 11.4486 3.19898C12.2111 3.19898 12.8293 2.5808 12.8293 1.81824C12.8293 1.05568 12.2111 0.4375 11.4486 0.4375ZM10.9521 1.81824C10.9521 1.54406 11.1744 1.32179 11.4486 1.32179C11.7227 1.32179 11.945 1.54406 11.945 1.81824C11.945 2.09242 11.7227 2.31468 11.4486 2.31468C11.1744 2.31468 10.9521 2.09242 10.9521 1.81824ZM12.1207 6.68205C11.8443 6.16136 11.4335 5.69553 10.9277 5.30607C11.0972 5.10119 11.3534 4.97098 11.6394 4.97098C12.1492 4.97098 12.5625 5.38425 12.5625 5.89405C12.5625 6.22713 12.3859 6.51968 12.1207 6.68205ZM2.58354 5.30604C2.41402 5.10118 2.15784 4.97098 1.87183 4.97098C1.36202 4.97098 0.948748 5.38425 0.948748 5.89405C0.948748 6.2272 1.12549 6.5197 1.39054 6.68202C1.6669 6.16133 2.07774 5.69551 2.58354 5.30604ZM8.841 8.21771C9.31225 8.21771 9.69427 7.83569 9.69427 7.36445C9.69427 6.8932 9.31225 6.51118 8.841 6.51118C8.36976 6.51118 7.98774 6.8932 7.98774 7.36445C7.98774 7.83569 8.36976 8.21771 8.841 8.21771ZM5.52039 7.36445C5.52039 7.83569 5.13837 8.21771 4.66712 8.21771C4.19588 8.21771 3.81385 7.83569 3.81385 7.36445C3.81385 6.8932 4.19588 6.51118 4.66712 6.51118C5.13837 6.51118 5.52039 6.8932 5.52039 7.36445ZM4.89866 9.20899C4.69213 9.07871 4.41908 9.14052 4.2888 9.34706C4.15852 9.55359 4.22034 9.82663 4.42687 9.95691L4.63021 10.0852C5.92733 10.9034 7.57921 10.9034 8.87632 10.0852L9.07967 9.95691C9.2862 9.82663 9.34802 9.55359 9.21773 9.34706C9.08745 9.14052 8.81441 9.07871 8.60788 9.20899L8.40453 9.33726C7.39566 9.97365 6.11087 9.97365 5.102 9.33726L4.89866 9.20899Z" fill="#CCCCCC"/>
</svg>
