<svg width="17" height="16" viewBox="0 0 17 16" fill="none" xmlns="http://www.w3.org/2000/svg">
<path d="M11.8433 10.0629H11.0948L10.8296 9.81589C11.7581 8.77301 12.3171 7.4191 12.3171 5.94625C12.3171 2.66209 9.55995 0 6.15854 0C2.75713 0 0 2.66209 0 5.94625C0 9.23042 2.75713 11.8925 6.15854 11.8925C7.68396 11.8925 9.08621 11.3528 10.1663 10.4563L10.4221 10.7124V11.4351L15.1595 16L16.5712 14.6369L11.8433 10.0629ZM6.15854 10.0629C3.79934 10.0629 1.89493 8.22413 1.89493 5.94625C1.89493 3.66838 3.79934 1.82962 6.15854 1.82962C8.51773 1.82962 10.4221 3.66838 10.4221 5.94625C10.4221 8.22413 8.51773 10.0629 6.15854 10.0629Z" fill="#656565"/>
</svg>
