<svg width="16" height="13" viewBox="0 0 16 13" fill="none" xmlns="http://www.w3.org/2000/svg">
<path d="M15.0499 2.07907C15.0926 2.01954 15.0296 1.94268 14.9612 1.96916C14.4757 2.15735 13.9683 2.28432 13.4507 2.34689C14.027 2.0026 14.4718 1.4785 14.7184 0.858009C14.7435 0.7948 14.6745 0.738353 14.6149 0.771235C14.0793 1.06704 13.5016 1.28004 12.9016 1.40271C12.8764 1.40785 12.8505 1.3993 12.8329 1.38069C12.3826 0.905536 11.7898 0.58917 11.1436 0.479845C10.4839 0.368223 9.80572 0.478744 9.21553 0.794075C8.62534 1.10941 8.1565 1.61171 7.88255 2.22221C7.62207 2.80268 7.55178 3.44974 7.68025 4.07116C7.69022 4.11937 7.65248 4.1649 7.60334 4.16184C6.43582 4.08933 5.2951 3.77879 4.25143 3.24893C3.21042 2.72042 2.28858 1.98517 1.54205 1.08853C1.50892 1.04874 1.44612 1.05389 1.42198 1.09969C1.18969 1.5405 1.06806 2.03181 1.06839 2.53115C1.06745 3.0282 1.18943 3.51777 1.42347 3.95628C1.65751 4.39478 1.99635 4.76861 2.40981 5.04448C1.97133 5.03255 1.54139 4.92414 1.15039 4.7276C1.1 4.70227 1.03956 4.73834 1.04218 4.79467C1.07267 5.45008 1.31328 6.10806 1.72975 6.61288C2.17295 7.15009 2.78811 7.51774 3.47116 7.65362C3.20822 7.73363 2.93524 7.77582 2.66041 7.77891C2.51083 7.77717 2.36155 7.76613 2.21342 7.74588C2.15849 7.73837 2.11365 7.79054 2.13287 7.84253C2.33661 8.39347 2.69652 8.8742 3.16976 9.22511C3.67571 9.60028 4.28602 9.8084 4.91577 9.82053C3.85236 10.6573 2.53945 11.1139 1.18632 11.1177C1.04728 11.1182 0.908306 11.1137 0.769656 11.1042C0.691524 11.0989 0.655589 11.203 0.722937 11.243C2.04134 12.0254 3.54824 12.4389 5.08529 12.437C6.22011 12.4488 7.3459 12.2344 8.39691 11.8062C9.44792 11.378 10.4031 10.7447 11.2066 9.94324C12.0101 9.14179 12.6459 8.18826 13.0767 7.13835C13.5076 6.08844 13.7249 4.9632 13.7161 3.82835V3.47469C13.7161 3.45142 13.7271 3.42954 13.7457 3.41552C14.2456 3.03805 14.6852 2.58739 15.0499 2.07907Z" fill="#CCCCCC"/>
</svg>
