<svg width="44" height="45" viewBox="0 0 44 45" fill="none" xmlns="http://www.w3.org/2000/svg">
<mask id="mask0_5309_1035" style="mask-type:alpha" maskUnits="userSpaceOnUse" x="0" y="0" width="44" height="45">
<rect y="0.625" width="44" height="44" rx="5" fill="#C4C4C4"/>
</mask>
<g mask="url(#mask0_5309_1035)">
<rect y="0.625" width="44" height="44" rx="5" fill="#323232"/>
<g clip-path="url(#clip0_5309_1035)">
<path fill-rule="evenodd" clip-rule="evenodd" d="M16.349 14.6249C15.2427 14.6249 14.1817 15.0462 13.3994 15.7961C12.6171 16.546 12.1776 17.563 12.1776 18.6235C12.1776 19.6841 12.6171 20.7012 13.3994 21.4511C14.1817 22.2009 15.2427 22.6223 16.349 22.6223C17.4553 22.6223 18.5163 22.2009 19.2986 21.4511C20.0809 20.7012 20.5204 19.6841 20.5204 18.6235C20.5204 17.563 20.0809 16.546 19.2986 15.7961C18.5163 15.0462 17.4553 14.6249 16.349 14.6249ZM9.04905 18.6235C9.0489 17.4637 9.34951 16.322 9.92385 15.3011C10.4982 14.2802 11.3282 13.4122 12.3393 12.7751C13.3504 12.138 14.5109 11.7518 15.7163 11.6513C16.9217 11.5508 18.1343 11.7391 19.245 12.1992C20.3557 12.6594 21.3296 13.3769 22.0793 14.2874C22.8289 15.1979 23.3307 16.2727 23.5395 17.4152C23.7483 18.5576 23.6575 19.7319 23.2754 20.8325C22.8934 21.933 22.2318 22.9252 21.3505 23.7199C23.0125 24.4928 24.4556 25.6387 25.5571 27.0601C26.6589 28.4815 27.3866 30.1368 27.6786 31.8852C27.7436 32.2781 27.6431 32.6798 27.3991 33.0016C27.1552 33.3236 26.788 33.5393 26.3782 33.6017C25.9683 33.6641 25.5493 33.5677 25.2135 33.3338C24.8777 33.1 24.6525 32.748 24.5875 32.3551C24.2719 30.4785 23.2695 28.7708 21.7598 27.5383C20.2502 26.3057 18.332 25.6289 16.349 25.6289C14.366 25.6289 12.4478 26.3057 10.9382 27.5383C9.42854 28.7708 8.42609 30.4785 8.11048 32.3551C8.07817 32.5496 8.00618 32.7361 7.89866 32.9041C7.79112 33.072 7.65015 33.218 7.48379 33.3336C7.31741 33.4493 7.12891 33.5323 6.92904 33.5781C6.72917 33.624 6.52182 33.6317 6.31887 33.6007C6.11591 33.5697 5.9213 33.5007 5.74616 33.3976C5.57102 33.2946 5.41877 33.1594 5.29811 32.9999C5.17745 32.8406 5.09074 32.6598 5.04293 32.4681C4.99513 32.2765 4.98715 32.0778 5.01947 31.8832C5.31217 30.1354 6.04016 28.4811 7.14173 27.0603C8.24332 25.6396 9.686 24.4945 11.3475 23.7219C10.6207 23.0682 10.0417 22.2784 9.64631 21.4014C9.25094 20.5244 9.04765 19.579 9.04905 18.6235ZM27.8204 15.6246C27.4056 15.6246 27.0076 15.7825 26.7143 16.0638C26.4208 16.345 26.2561 16.7264 26.2561 17.1241C26.2561 17.5218 26.4208 17.9032 26.7143 18.1844C27.0076 18.4656 27.4056 18.6235 27.8204 18.6235C28.526 18.6236 29.2109 18.8523 29.764 19.2727C30.317 19.693 30.7056 20.2801 30.8664 20.9388C31.0272 21.5975 30.951 22.2889 30.6503 22.9008C30.3495 23.5128 29.8418 24.0093 29.2095 24.3097C28.9487 24.434 28.7293 24.6257 28.576 24.863C28.4227 25.1004 28.3416 25.3741 28.3418 25.6533V26.357C28.3414 26.6938 28.4592 27.021 28.6763 27.2858C28.8935 27.5505 29.1974 27.7376 29.539 27.8166C32.0418 28.3944 34.0483 30.2158 34.7991 32.559C34.8586 32.748 34.9566 32.9239 35.0872 33.0767C35.218 33.2292 35.3788 33.3558 35.5606 33.4487C35.7423 33.5415 35.9415 33.5991 36.1465 33.6181C36.3515 33.6371 36.5584 33.6169 36.7556 33.5591C36.9525 33.5011 37.1355 33.4065 37.2941 33.2806C37.4528 33.1546 37.584 32.9999 37.6801 32.8252C37.7763 32.6506 37.8355 32.4595 37.8542 32.2627C37.8733 32.0662 37.8514 31.8678 37.79 31.6793C37.3724 30.381 36.6838 29.1775 35.7659 28.1425C34.8479 27.1072 33.72 26.2617 32.4506 25.6573C33.2659 24.7974 33.8034 23.7291 33.9972 22.582C34.1912 21.4349 34.0333 20.2586 33.5429 19.1959C33.0523 18.1332 32.2504 17.23 31.2347 16.596C30.2187 15.962 29.0326 15.6245 27.8204 15.6246Z" fill="white" fill-opacity="0.75"/>
</g>
</g>
<defs>
<clipPath id="clip0_5309_1035">
<rect width="33" height="22" fill="white" transform="translate(5 11.625)"/>
</clipPath>
</defs>
</svg>
