<svg width="51" height="20" viewBox="0 0 51 20" fill="none" xmlns="http://www.w3.org/2000/svg">
<path d="M50.9736 0H0.988281V19.3976H50.9736V0Z" fill="white"/>
<path fill-rule="evenodd" clip-rule="evenodd" d="M50.9736 0H0.988281V19.3976H50.9736V0ZM50.1554 0.818394V18.5792C50.1554 18.5792 8.21979 18.5792 1.80649 18.5792V0.818394H50.1554Z" fill="#59D4BF"/>
<path d="M8.29102 14.5353H13.1917C15.2997 14.5353 15.9584 13.746 15.9584 12.4873V11.3303C15.9584 10.1879 15.1826 9.63227 14.4097 9.58835C15.1826 9.63227 15.9293 8.9308 15.9293 7.83204V6.90924C15.9293 5.65063 15.2997 4.86133 13.1917 4.86133H8.29102V14.5353ZM18.0078 14.5353H24.6946V13.293H19.5743V4.86133H18.0078V14.5353ZM37.5735 12.3705V7.02605C37.5735 6.36703 37.7639 6.10354 38.3495 6.10354H43.6776V4.86133H38.7737C37.0611 4.86133 36.0102 5.73816 36.0102 7.34809V12.0482C36.0102 13.6584 37.0611 14.5353 38.7737 14.5353H43.6776V9.39806H42.1114V13.293H38.3495C37.7639 13.293 37.5735 13.0293 37.5735 12.3705ZM34.1043 7.34809C34.1043 5.73816 33.0532 4.86133 31.3405 4.86133H28.7788C27.0661 4.86133 26.0152 5.73816 26.0152 7.34809V12.0482C26.0152 13.6584 27.0661 14.5353 28.7788 14.5353H31.3405C33.0532 14.5353 34.1043 13.6584 34.1043 12.0482V7.34809ZM9.85435 10.2462H13.6486C14.2341 10.2462 14.4243 10.3636 14.4243 10.8762V12.663C14.4243 13.1756 14.2341 13.293 13.6486 13.293H9.85435V10.2462ZM27.5785 12.3705V7.02605C27.5785 6.36703 27.7686 6.10354 28.3542 6.10354H31.765C32.3506 6.10354 32.5407 6.36703 32.5407 7.02605V12.3705C32.5407 13.0293 32.3506 13.293 31.765 13.293H28.3542C27.7686 13.293 27.5785 13.0293 27.5785 12.3705ZM9.85435 6.10354H13.59C14.1755 6.10354 14.3659 6.22094 14.3659 6.73357V8.30076C14.3659 8.8134 14.1755 8.9308 13.59 8.9308H9.85435V6.10354Z" fill="#59D4BF"/>
</svg>
