<svg width="185" height="34" viewBox="0 0 185 34" fill="none" xmlns="http://www.w3.org/2000/svg">
<path fill-rule="evenodd" clip-rule="evenodd" d="M0 8.00824C0 7.92163 0.0703137 7.85132 0.156922 7.85132H2.9809C3.0675 7.85132 3.13782 7.92163 3.13782 8.00824V10.8322C3.13782 10.9188 3.0675 10.9891 2.9809 10.9891H0.156922C0.0703137 10.9891 0 10.9188 0 10.8322V8.00824Z" fill="#323232"/>
<path fill-rule="evenodd" clip-rule="evenodd" d="M0 21.9736C0 21.887 0.0703137 21.8167 0.156922 21.8167H2.9809C3.0675 21.8167 3.13782 21.887 3.13782 21.9736V33.8431C3.13782 33.9297 3.0675 34 2.9809 34H0.156922C0.0703137 34 0 33.9297 0 33.8431V21.9736Z" fill="#323232"/>
<path d="M26.165 7.85156H18.3105V10.2079H26.165V7.85156Z" fill="#323232"/>
<path d="M26.1513 7.85132H23.7949V15.7057H26.1513V7.85132Z" fill="#323232"/>
<path d="M39.0819 14.6575H36.5352V23.548H39.0819V14.6575Z" fill="#323232"/>
<path d="M39.0819 7.85156H36.5352V10.3985H39.0819V7.85156Z" fill="#323232"/>
<path d="M36.5273 33.9997H40.2634V33.3288H37.4021V31.632H40.0181V30.9611H37.4021V29.4536H40.2634V28.7828H36.5273V33.9997Z" fill="#323232"/>
<path d="M47.4043 33.9999H48.2791V29.3671L50.7806 33.9999H52.244V28.7831H51.3692V33.4159L48.8513 28.7831H47.4043V33.9999Z" fill="#323232"/>
<path d="M60.2595 32.8316V29.9509C60.2595 29.5958 60.3658 29.4536 60.6927 29.4536H63.6685V28.7828H60.9299C59.9734 28.7828 59.3848 29.2563 59.3848 30.1246V32.658C59.3848 33.5261 59.9734 33.9997 60.9299 33.9997H63.6685V31.2295H62.7937V33.3288H60.6927C60.3658 33.3288 60.2595 33.1867 60.2595 32.8316Z" fill="#323232"/>
<path d="M71.6795 28.7828H70.8047V33.9997H71.6795V28.7828Z" fill="#323232"/>
<path d="M78.8301 33.9999H79.7048V29.3671L82.2064 33.9999H83.6698V28.7831H82.795V33.4159L80.2771 28.7831H78.8301V33.9999Z" fill="#323232"/>
<path d="M90.8105 33.9998H94.5467V33.3289H91.6855V31.6321H94.3014V30.9613H91.6855V29.4538H94.5467V28.783H90.8105V33.9998Z" fill="#323232"/>
<path d="M101.691 33.9998H105.428V33.3289H102.566V31.6321H105.182V30.9613H102.566V29.4538H105.428V28.783H101.691V33.9998Z" fill="#323232"/>
<path d="M115.887 32.0347C116.214 31.9715 116.599 31.6796 116.599 31.0877V30.0774C116.599 29.0278 116.133 28.7831 114.906 28.7831H112.568V33.9999H113.443V32.1057H115.07L115.986 33.9999H116.934L115.887 32.0347ZM113.443 29.4539H115.291C115.544 29.4539 115.724 29.5408 115.724 29.7933V31.0955C115.724 31.3481 115.544 31.4349 115.291 31.4349H113.443V29.4539Z" fill="#323232"/>
<path d="M124.945 28.7827H124.07V33.9996H124.945V28.7827Z" fill="#323232"/>
<path d="M132.102 33.9998H132.976V29.367L135.478 33.9998H136.941V28.783H136.066V33.4158L133.549 28.783H132.102V33.9998Z" fill="#323232"/>
<path d="M144.959 32.8317V29.951C144.959 29.5959 145.065 29.4538 145.392 29.4538H148.368V28.783H145.629C144.673 28.783 144.084 29.2565 144.084 30.1247V32.6581C144.084 33.5262 144.673 33.9998 145.629 33.9998H148.368V31.2296H147.493V33.3289H145.392C145.065 33.3289 144.959 33.1869 144.959 32.8317Z" fill="#323232"/>
<path d="M148.359 25.8489H36.5352V26.3719H148.359V25.8489Z" fill="#323232"/>
<path d="M57.7344 23.5544H68.6114V21.5351H60.2811V9.87082H68.6114V7.85156H57.7344V23.5544Z" fill="#323232"/>
<path d="M91.0517 7.85156L85.3633 23.5542H87.9097L89.1477 20.039L89.8624 18.0192L92.6944 10.0133L95.5264 18.0192H91.7708L91.0579 20.039H96.2172L97.4543 23.5542H100.025L94.3123 7.85156H91.0517Z" fill="#323232"/>
<path d="M57.7344 23.5544H68.6114V21.5351H60.2811V9.87082H68.6114V7.85156H57.7344V23.5544Z" fill="#323232"/>
<path d="M70.6309 7.85156V23.5542H73.1781V9.87135H78.5565C79.2943 9.87135 79.8183 10.132 79.8183 10.8921V14.8123C79.8183 15.5725 79.2943 15.834 78.5565 15.834H75.7244V17.8529H77.9138L80.5795 23.5542H83.3409L80.2939 17.6395C81.2459 17.4494 82.3648 16.5705 82.3648 14.7888V11.7474C82.3648 8.58782 81.0084 7.85156 77.4383 7.85156H70.6309Z" fill="#323232"/>
<path d="M66.0667 14.7002H62.1934V16.72H66.0667V14.7002Z" fill="#323232"/>
<path d="M79.6354 15.834H75.0918V17.853H79.6354V15.834Z" fill="#323232"/>
<path d="M47.1367 7.85156V23.555H49.6832V9.87126H55.7732V7.85156H47.1367Z" fill="#323232"/>
<path d="M49.6815 7.85156V23.555H47.135V9.87126H41.0449V7.85156H49.6815Z" fill="#323232"/>
<path d="M119.256 8.37439H116.709V23.5478H119.256V8.37439Z" fill="#323232"/>
<path d="M119.256 7.85156H116.709V10.3985H119.256V7.85156Z" fill="#323232"/>
<path d="M126.728 23.5544H129.989L135.463 7.85156H132.892L128.37 21.3926L123.824 7.85156H121.277L126.728 23.5544Z" fill="#323232"/>
<path d="M137.479 23.5544H148.356V21.5351H140.025V9.87082H148.356V7.85156H137.479V23.5544Z" fill="#323232"/>
<path d="M145.811 14.6934H141.938V16.7131H145.811V14.6934Z" fill="#323232"/>
<path d="M106.111 7.85132V23.5548H108.658V9.87101H114.748V7.85132H106.111Z" fill="#323232"/>
<path d="M108.656 7.85132V23.5548H106.11V9.87101H100.02V7.85132H108.656Z" fill="#323232"/>
<path d="M10.2841 7.85156H7.92773V26.0675H10.2841V7.85156Z" fill="url(#paint0_linear_3561_431)"/>
<path d="M18.2222 15.7816H0V18.1379H18.2222V15.7816Z" fill="url(#paint1_linear_3561_431)"/>
<path d="M18.2215 15.778H15.8652V34H18.2215V15.778Z" fill="url(#paint2_linear_3561_431)"/>
<path d="M26.1499 23.7109H7.92773V26.0672H26.1499V23.7109Z" fill="url(#paint3_linear_3561_431)"/>
<path d="M184.552 0H144.088V15.7029H184.552V0Z" fill="white"/>
<path fill-rule="evenodd" clip-rule="evenodd" d="M184.552 0H144.088V15.7029H184.552V0ZM183.89 0.662513V15.0404C183.89 15.0404 149.942 15.0404 144.75 15.0404V0.662513H183.89Z" fill="#59D4BF"/>
<path d="M150 11.7664H153.967C155.674 11.7664 156.207 11.1274 156.207 10.1085V9.17188C156.207 8.2471 155.579 7.79727 154.953 7.76172C155.579 7.79727 156.183 7.22941 156.183 6.33993V5.5929C156.183 4.57402 155.674 3.93506 153.967 3.93506H150V11.7664ZM157.866 11.7664H163.279V10.7608H159.134V3.93506H157.866V11.7664ZM173.705 10.014V5.68746C173.705 5.15396 173.859 4.94066 174.333 4.94066H178.646V3.93506H174.677C173.29 3.93506 172.439 4.64488 172.439 5.94816V9.75302C172.439 11.0565 173.29 11.7664 174.677 11.7664H178.646V7.60767H177.379V10.7608H174.333C173.859 10.7608 173.705 10.5472 173.705 10.014ZM170.897 5.94816C170.897 4.64488 170.046 3.93506 168.659 3.93506H166.585C165.199 3.93506 164.348 4.64488 164.348 5.94816V9.75302C164.348 11.0565 165.199 11.7664 166.585 11.7664H168.659C170.046 11.7664 170.897 11.0565 170.897 9.75302V5.94816ZM151.266 8.29426H154.337C154.811 8.29426 154.965 8.3893 154.965 8.80429V10.2507C154.965 10.6657 154.811 10.7608 154.337 10.7608H151.266V8.29426ZM165.614 10.014V5.68746C165.614 5.15396 165.768 4.94066 166.242 4.94066H169.003C169.477 4.94066 169.631 5.15396 169.631 5.68746V10.014C169.631 10.5472 169.477 10.7608 169.003 10.7608H166.242C165.768 10.7608 165.614 10.5472 165.614 10.014ZM151.266 4.94066H154.29C154.764 4.94066 154.918 5.0357 154.918 5.45069V6.71937C154.918 7.13437 154.764 7.22941 154.29 7.22941H151.266V4.94066Z" fill="#59D4BF"/>
<defs>
<linearGradient id="paint0_linear_3561_431" x1="7.84923" y1="15.7814" x2="18.2169" y2="26.1457" gradientUnits="userSpaceOnUse">
<stop stop-color="#5761B2"/>
<stop offset="1" stop-color="#1FC5A8"/>
</linearGradient>
<linearGradient id="paint1_linear_3561_431" x1="7.85437" y1="15.7816" x2="18.2221" y2="26.1459" gradientUnits="userSpaceOnUse">
<stop stop-color="#5761B2"/>
<stop offset="1" stop-color="#1FC5A8"/>
</linearGradient>
<linearGradient id="paint2_linear_3561_431" x1="7.85376" y1="15.7814" x2="18.2215" y2="26.1457" gradientUnits="userSpaceOnUse">
<stop stop-color="#5761B2"/>
<stop offset="1" stop-color="#1FC5A8"/>
</linearGradient>
<linearGradient id="paint3_linear_3561_431" x1="7.84923" y1="15.7815" x2="18.217" y2="26.1458" gradientUnits="userSpaceOnUse">
<stop stop-color="#5761B2"/>
<stop offset="1" stop-color="#1FC5A8"/>
</linearGradient>
</defs>
</svg>
