<svg width="184" height="33" viewBox="0 0 184 33" fill="none" xmlns="http://www.w3.org/2000/svg">
<path fill-rule="evenodd" clip-rule="evenodd" d="M0 0.892818C0 0.785832 0.0868577 0.698975 0.193844 0.698975H3.68226C3.78925 0.698975 3.87611 0.785832 3.87611 0.892818V4.38123C3.87611 4.48821 3.78925 4.57507 3.68226 4.57507H0.193844C0.0868577 4.57507 0 4.48821 0 4.38123V0.892818Z" fill="#323232"/>
<path fill-rule="evenodd" clip-rule="evenodd" d="M0 18.1434C0 18.0364 0.0868577 17.9496 0.193844 17.9496H3.68226C3.78925 17.9496 3.87611 18.0364 3.87611 18.1434V32.8057C3.87611 32.9127 3.78925 32.9995 3.68226 32.9995H0.193844C0.0868577 32.9995 0 32.9127 0 32.8057V18.1434Z" fill="#323232"/>
<path d="M32.3158 0.698486H22.6133V3.60919H32.3158V0.698486Z" fill="#323232"/>
<path d="M32.3073 0.698486H29.3965V10.4009H32.3073V0.698486Z" fill="#323232"/>
<path d="M48.2787 9.10571H45.1328V20.088H48.2787V9.10571Z" fill="#323232"/>
<path d="M48.2787 0.698608H45.1328V3.84484H48.2787V0.698608Z" fill="#323232"/>
<path d="M45.1211 32.9994H49.7361V32.1706H46.2017V30.0745H49.4332V29.2459H46.2017V27.3837H49.7361V26.5551H45.1211V32.9994Z" fill="#323232"/>
<path d="M58.5527 32.9995H59.6333V27.2766L62.7234 32.9995H64.5312V26.5552H63.4506V32.278L60.3402 26.5552H58.5527V32.9995Z" fill="#323232"/>
<path d="M74.438 31.5566V27.9981C74.438 27.5594 74.5693 27.3838 74.9732 27.3838H78.6491V26.5552H75.2661C74.0846 26.5552 73.3574 27.1401 73.3574 28.2126V31.3421C73.3574 32.4145 74.0846 32.9995 75.2661 32.9995H78.6491V29.5775H77.5685V32.1707H74.9732C74.5693 32.1707 74.438 31.9953 74.438 31.5566Z" fill="#323232"/>
<path d="M88.5415 26.5551H87.4609V32.9994H88.5415V26.5551Z" fill="#323232"/>
<path d="M97.3789 32.9994H98.4595V27.2765L101.55 32.9994H103.357V26.5551H102.277V32.2779L99.1664 26.5551H97.3789V32.9994Z" fill="#323232"/>
<path d="M112.182 32.9995H116.797V32.1707H113.262V30.0747H116.494V29.246H113.262V27.3838H116.797V26.5552H112.182V32.9995Z" fill="#323232"/>
<path d="M125.617 32.9994H130.232V32.1706H126.698V30.0745H129.929V29.2459H126.698V27.3837H130.232V26.5551H125.617V32.9994Z" fill="#323232"/>
<path d="M143.153 30.5718C143.556 30.4938 144.031 30.1332 144.031 29.402V28.1541C144.031 26.8574 143.456 26.5552 141.941 26.5552H139.053V32.9995H140.134V30.6596H142.143L143.274 32.9995H144.446L143.153 30.5718ZM140.134 27.3838H142.415C142.728 27.3838 142.95 27.4911 142.95 27.8031V29.4117C142.95 29.7237 142.728 29.8309 142.415 29.8309H140.134V27.3838Z" fill="#323232"/>
<path d="M154.342 26.5551H153.262V32.9994H154.342V26.5551Z" fill="#323232"/>
<path d="M163.184 32.9994H164.264V27.2765L167.355 32.9994H169.162V26.5551H168.081V32.2779L164.971 26.5551H163.184V32.9994Z" fill="#323232"/>
<path d="M179.067 31.5566V27.9981C179.067 27.5594 179.198 27.3838 179.602 27.3838H183.279V26.5552H179.895C178.714 26.5552 177.986 27.1401 177.986 28.2126V31.3421C177.986 32.4145 178.714 32.9995 179.895 32.9995H183.279V29.5775H182.198V32.1707H179.602C179.198 32.1707 179.067 31.9953 179.067 31.5566Z" fill="#323232"/>
<path d="M183.267 22.9307H45.1328V23.5767H183.267V22.9307Z" fill="#323232"/>
<path d="M71.3262 20.0963H84.7624V17.6019H74.4721V3.19309H84.7624V0.69873H71.3262V20.0963Z" fill="#323232"/>
<path d="M112.484 0.69873L105.457 20.096H108.603L110.132 15.7537L111.015 13.2587L114.513 3.3691L118.011 13.2587H113.372L112.492 15.7537H118.865L120.393 20.096H123.569L116.512 0.69873H112.484Z" fill="#323232"/>
<path d="M71.3262 20.0963H84.7624V17.6019H74.4721V3.19309H84.7624V0.69873H71.3262V20.0963Z" fill="#323232"/>
<path d="M87.2559 0.69873V20.096H90.4024V3.19375H97.0463C97.9577 3.19375 98.605 3.51569 98.605 4.45471V9.29729C98.605 10.2363 97.9577 10.5593 97.0463 10.5593H93.5479V13.0533H96.2524L99.5452 20.096H102.956L99.1925 12.7896C100.369 12.5549 101.751 11.4692 101.751 9.26819V5.51122C101.751 1.60822 100.075 0.69873 95.665 0.69873H87.2559Z" fill="#323232"/>
<path d="M81.6187 9.15869H76.834V11.6537H81.6187V9.15869Z" fill="#323232"/>
<path d="M98.3783 10.5588H92.7656V13.0529H98.3783V10.5588Z" fill="#323232"/>
<path d="M58.2266 0.698853V20.0971H61.3721V3.19376H68.8951V0.698853H58.2266Z" fill="#323232"/>
<path d="M61.3678 0.698853V20.0971H58.2223V3.19376H50.6992V0.698853H61.3678Z" fill="#323232"/>
<path d="M147.322 1.34436H144.176V20.0879H147.322V1.34436Z" fill="#323232"/>
<path d="M147.322 0.698608H144.176V3.84484H147.322V0.698608Z" fill="#323232"/>
<path d="M156.553 20.0961H160.581L167.344 0.698608H164.168L158.582 17.4257L152.966 0.698608H149.82L156.553 20.0961Z" fill="#323232"/>
<path d="M169.834 20.0961H183.271V17.6018H172.98V3.19297H183.271V0.698608H169.834V20.0961Z" fill="#323232"/>
<path d="M180.123 9.15002H175.338V11.6449H180.123V9.15002Z" fill="#323232"/>
<path d="M131.082 0.698608V20.0969H134.228V3.19351H141.751V0.698608H131.082Z" fill="#323232"/>
<path d="M134.226 0.698608V20.0969H131.081V3.19351H123.557V0.698608H134.226Z" fill="#323232"/>
<path d="M12.7097 0.698486H9.79883V23.2005H12.7097V0.698486Z" fill="url(#paint0_linear_3802_2057)"/>
<path d="M22.5096 10.4945H0V13.4052H22.5096V10.4945Z" fill="url(#paint1_linear_3802_2057)"/>
<path d="M22.5045 10.4902H19.5938V32.9998H22.5045V10.4902Z" fill="url(#paint2_linear_3802_2057)"/>
<path d="M32.3084 20.29H9.79883V23.2008H32.3084V20.29Z" fill="url(#paint3_linear_3802_2057)"/>
<defs>
<linearGradient id="paint0_linear_3802_2057" x1="9.70185" y1="10.4941" x2="22.5089" y2="23.297" gradientUnits="userSpaceOnUse">
<stop stop-color="#5761B2"/>
<stop offset="1" stop-color="#1FC5A8"/>
</linearGradient>
<linearGradient id="paint1_linear_3802_2057" x1="9.70241" y1="10.4945" x2="22.5095" y2="23.2974" gradientUnits="userSpaceOnUse">
<stop stop-color="#5761B2"/>
<stop offset="1" stop-color="#1FC5A8"/>
</linearGradient>
<linearGradient id="paint2_linear_3802_2057" x1="9.69727" y1="10.4945" x2="22.5044" y2="23.2974" gradientUnits="userSpaceOnUse">
<stop stop-color="#5761B2"/>
<stop offset="1" stop-color="#1FC5A8"/>
</linearGradient>
<linearGradient id="paint3_linear_3802_2057" x1="9.70185" y1="10.4949" x2="22.509" y2="23.2978" gradientUnits="userSpaceOnUse">
<stop stop-color="#5761B2"/>
<stop offset="1" stop-color="#1FC5A8"/>
</linearGradient>
</defs>
</svg>
